<mxfile host="app.diagrams.net" modified="2024-03-15T10:38:18.611Z" agent="Mozilla/5.0 (Windows NT 10.0; Win64; x64) AppleWebKit/537.36 (KHTML, like Gecko) Chrome/122.0.0.0 Safari/537.36" version="24.0.6" etag="uiZf9fZgXL5cnKF9k0ag" type="github">
  <diagram name="Page-1" id="6oxNZ4l3MBEyE4C4A38-">
    <mxGraphModel>
      <root>
        <mxCell id="0" />
        <mxCell id="1" parent="0" />
      </root>
    </mxGraphModel>
  </diagram>
</mxfile>
